<svg xmlns="http://www.w3.org/2000/svg" viewBox="0 0 36 36" fill="none">
  <rect width="36" height="36" rx="8" fill="#6366f1"/>
  <path d="M18 6C13.58 6 10 9.58 10 14v4c0 5.52 3.58 9.5 8 11 4.42-1.5 8-5.48 8-11v-4c0-4.42-3.58-8-8-8z" fill="#fff" fill-opacity=".15"/>
  <path d="M18 8c-3.31 0-6 2.69-6 6v3.5c0 4.42 2.69 7.5 6 8.5 3.31-1 6-4.08 6-8.5V14c0-3.31-2.69-6-6-6z" fill="#fff" fill-opacity=".2"/>
  <path d="M16.5 18.5l-2-2a1 1 0 00-1.41 1.41l2.7 2.7a1 1 0 001.42 0l5.3-5.3a1 1 0 00-1.42-1.41L16.5 18.5z" fill="#fff"/>
</svg>
